<svg width="24" height="24" viewBox="0 0 24 24" fill="none" xmlns="http://www.w3.org/2000/svg">
<path d="M12.0004 20.4C11.8116 20.4 11.6194 20.3666 11.4239 20.2997C11.2284 20.2328 11.0565 20.1259 10.9082 19.9789L9.51231 18.7159C7.62431 17.0005 5.96703 15.3441 4.54047 13.7468C3.11375 12.1494 2.40039 10.4511 2.40039 8.65179C2.40039 7.21274 2.89103 6.01101 3.87231 5.04661C4.85375 4.08221 6.06975 3.60001 7.52031 3.60001C8.34703 3.60001 9.15239 3.78752 9.93639 4.16255C10.7204 4.53773 11.4084 5.12136 12.0004 5.91344C12.6457 5.12136 13.3443 4.53773 14.0963 4.16255C14.8483 3.78752 15.643 3.60001 16.4805 3.60001C17.931 3.60001 19.147 4.08221 20.1285 5.04661C21.1098 6.01101 21.6004 7.21274 21.6004 8.65179C21.6004 10.4511 20.8884 12.1507 19.4644 13.7508C18.0404 15.3508 16.379 17.0085 14.4803 18.7239L13.0883 19.9829C12.9418 20.1285 12.7718 20.2344 12.5783 20.3006C12.385 20.3669 12.1924 20.4 12.0004 20.4ZM11.2804 7.5817C10.8377 6.85242 10.2937 6.26879 9.64839 5.83082C9.00311 5.39284 8.29375 5.17385 7.52031 5.17385C6.49631 5.17385 5.65367 5.50166 4.99239 6.15729C4.33111 6.81308 4.00047 7.64686 4.00047 8.65863C4.00047 9.53537 4.30647 10.4611 4.91847 11.4359C5.53047 12.4106 6.26247 13.3561 7.11447 14.2725C7.96647 15.1889 8.84711 16.0432 9.75639 16.8354C10.6657 17.6275 11.4137 18.2885 12.0004 18.8184C12.5871 18.299 13.3351 17.6406 14.2444 16.8432C15.1537 16.0458 16.0337 15.1855 16.8844 14.2623C17.7351 13.339 18.4671 12.3898 19.0804 11.4147C19.6937 10.4396 20.0003 9.51861 20.0003 8.65179C20.0003 7.64458 19.667 6.81308 19.0005 6.15729C18.3338 5.50166 17.4938 5.17385 16.4805 5.17385C15.6965 5.17385 14.9845 5.39024 14.3445 5.82302C13.7045 6.25581 13.1525 6.84204 12.6885 7.5817C12.5978 7.71799 12.4938 7.81761 12.3765 7.88056C12.259 7.94351 12.1283 7.97499 11.9843 7.97499C11.8403 7.97499 11.707 7.94351 11.5845 7.88056C11.4618 7.81761 11.3604 7.71799 11.2804 7.5817Z" fill="white"/>
</svg>
