<svg width="24" height="24" viewBox="0 0 24 24" fill="none" xmlns="http://www.w3.org/2000/svg">
<path d="M5.125 18.875H6.45L16.25 9.0875L14.9125 7.75L5.125 17.5625V18.875ZM4.1875 20.75C3.92917 20.75 3.70833 20.6583 3.525 20.475C3.34167 20.2917 3.25 20.0708 3.25 19.8125V17.5485C3.25 17.2995 3.29783 17.0602 3.3935 16.8307C3.48917 16.6011 3.62467 16.3992 3.8 16.225L16.25 3.7875C16.433 3.61617 16.635 3.48375 16.856 3.39025C17.077 3.29675 17.3122 3.25 17.5617 3.25C17.8112 3.25 18.0529 3.29792 18.2867 3.39375C18.5206 3.48958 18.7292 3.62917 18.9125 3.8125L20.2125 5.125C20.3958 5.3 20.5312 5.50208 20.6187 5.73125C20.7063 5.96042 20.75 6.19392 20.75 6.43175C20.75 6.68558 20.7072 6.9245 20.6215 7.1485C20.5358 7.3725 20.3995 7.57717 20.2125 7.7625L7.775 20.2C7.6015 20.3753 7.40042 20.5108 7.17175 20.6065C6.94292 20.7022 6.70233 20.75 6.45 20.75H4.1875ZM15.575 8.425L14.9125 7.75L16.25 9.0875L15.575 8.425Z" fill="black"/>
</svg>
