<svg width="24" height="24" viewBox="0 0 24 24" fill="none" xmlns="http://www.w3.org/2000/svg">
<path d="M4.66675 22.5C4.20842 22.5 3.816 22.3368 3.4895 22.0105C3.16317 21.684 3 21.2916 3 20.8333V8C3 7.54167 3.16317 7.14933 3.4895 6.823C3.816 6.4965 4.20842 6.33325 4.66675 6.33325H7.16675C7.16675 5.00558 7.62642 3.86808 8.54575 2.92075C9.46525 1.97358 10.5889 1.5 11.9168 1.5C13.2769 1.5 14.4364 1.96808 15.3953 2.90425C16.3539 3.84025 16.8333 4.98325 16.8333 6.33325H19.3333C19.7916 6.33325 20.184 6.4965 20.5105 6.823C20.8368 7.14933 21 7.54167 21 8V20.8333C21 21.2916 20.8368 21.684 20.5105 22.0105C20.184 22.3368 19.7916 22.5 19.3333 22.5H4.66675ZM4.66675 20.8333H19.3333V8H4.66675V20.8333ZM8.83325 6.33325H15.1667C15.1667 5.44442 14.8612 4.69442 14.25 4.08325C13.6388 3.47225 12.8888 3.16675 12 3.16675C11.1112 3.16675 10.3612 3.47225 9.75 4.08325C9.13883 4.69442 8.83325 5.44442 8.83325 6.33325ZM11.987 14C13.2173 14 14.3313 13.5777 15.3288 12.7332C16.3263 11.8889 16.8222 10.9417 16.8167 9.89175C16.8167 9.67508 16.7362 9.48617 16.575 9.325C16.4138 9.16383 16.213 9.08325 15.9725 9.08325C15.7743 9.08325 15.5974 9.14992 15.4417 9.28325C15.2861 9.41658 15.1833 9.59992 15.1333 9.83325C14.9611 10.5666 14.5778 11.1666 13.9833 11.6333C13.3889 12.0999 12.7251 12.3333 11.9918 12.3333C11.2584 12.3333 10.5931 12.0999 9.99575 11.6333C9.39858 11.1666 9.01667 10.5666 8.85 9.83325C8.8 9.59442 8.69725 9.40975 8.54175 9.27925C8.38608 9.14858 8.20825 9.08325 8.00825 9.08325C7.78058 9.08325 7.58475 9.16383 7.42075 9.325C7.25692 9.48617 7.175 9.67508 7.175 9.89175C7.175 10.9424 7.66942 11.8898 8.65825 12.734C9.64725 13.578 10.7568 14 11.987 14Z" fill="black"/>
</svg>