<svg width="24" height="24" viewBox="0 0 24 24" fill="none" xmlns="http://www.w3.org/2000/svg">
<path d="M18 6.5L17.16 17.398C17.033 18.671 16.97 19.307 16.68 19.788C16.4257 20.2114 16.0516 20.55 15.605 20.761C15.098 21 14.46 21 13.18 21H10.82C9.541 21 8.902 21 8.395 20.76C7.94805 20.5491 7.57361 20.2106 7.319 19.787C7.031 19.307 6.967 18.671 6.839 17.398L6 6.5M13.5 15.5V10.5M10.5 15.5V10.5M4.5 6.5H9.115M9.115 6.5L9.501 3.828C9.613 3.342 10.017 3 10.481 3H13.519C13.983 3 14.386 3.342 14.499 3.828L14.885 6.5M9.115 6.5H14.885M14.885 6.5H19.5" stroke="#FF3B30" stroke-width="1.5" stroke-linecap="round" stroke-linejoin="round"/>
</svg>
