<svg width="62" height="16" viewBox="0 0 62 16" fill="none" xmlns="http://www.w3.org/2000/svg">
<path d="M1 13C1 13.1326 1.05268 13.2598 1.14645 13.3536C1.24021 13.4473 1.36739 13.5 1.5 13.5H14.5C14.6326 13.5 14.7598 13.4473 14.8536 13.3536C14.9473 13.2598 15 13.1326 15 13V6.9375H1V13ZM3.0625 8.6875C3.0625 8.6212 3.08884 8.55761 3.13572 8.51072C3.18261 8.46384 3.2462 8.4375 3.3125 8.4375H6.1875C6.2538 8.4375 6.31739 8.46384 6.36428 8.51072C6.41116 8.55761 6.4375 8.6212 6.4375 8.6875V10.6875C6.4375 10.7538 6.41116 10.8174 6.36428 10.8643C6.31739 10.9112 6.2538 10.9375 6.1875 10.9375H3.3125C3.2462 10.9375 3.18261 10.9112 3.13572 10.8643C3.08884 10.8174 3.0625 10.7538 3.0625 10.6875V8.6875ZM14.5 2.5H1.5C1.36739 2.5 1.24021 2.55268 1.14645 2.64645C1.05268 2.74021 1 2.86739 1 3V5.0625H15V3C15 2.86739 14.9473 2.74021 14.8536 2.64645C14.7598 2.55268 14.6326 2.5 14.5 2.5Z" fill="black"/>
<path d="M33.1637 6.85547H31.1417C31.1048 6.59387 31.0294 6.36151 30.9155 6.15838C30.8016 5.95218 30.6554 5.77675 30.4769 5.6321C30.2984 5.48745 30.0922 5.37666 29.8583 5.29972C29.6275 5.22277 29.3767 5.1843 29.1058 5.1843C28.6165 5.1843 28.1902 5.30587 27.8271 5.54901C27.4639 5.78906 27.1823 6.13991 26.9822 6.60156C26.7822 7.06013 26.6822 7.61719 26.6822 8.27273C26.6822 8.94673 26.7822 9.51302 26.9822 9.97159C27.1854 10.4302 27.4685 10.7764 27.8317 11.0103C28.1948 11.2442 28.6149 11.3612 29.092 11.3612C29.3597 11.3612 29.6075 11.3258 29.8352 11.255C30.0661 11.1842 30.2707 11.0811 30.4492 10.9457C30.6277 10.8072 30.7755 10.6394 30.8924 10.4425C31.0124 10.2455 31.0955 10.0208 31.1417 9.76847L33.1637 9.7777C33.1114 10.2116 32.9806 10.6302 32.7713 11.0334C32.5651 11.4335 32.2866 11.792 31.9357 12.109C31.5879 12.4229 31.1725 12.6722 30.6893 12.8569C30.2092 13.0385 29.666 13.1293 29.0597 13.1293C28.2164 13.1293 27.4624 12.9384 26.7976 12.5568C26.1359 12.1752 25.6127 11.6228 25.228 10.8995C24.8464 10.1763 24.6555 9.30066 24.6555 8.27273C24.6555 7.24171 24.8494 6.36458 25.2372 5.64134C25.625 4.91809 26.1513 4.36719 26.8161 3.98864C27.4808 3.60701 28.2287 3.41619 29.0597 3.41619C29.6075 3.41619 30.1153 3.49313 30.5831 3.64702C31.054 3.8009 31.471 4.02557 31.8342 4.32102C32.1973 4.6134 32.4928 4.97195 32.7205 5.39666C32.9513 5.82138 33.0991 6.30765 33.1637 6.85547ZM36.049 13H33.907L37.1708 3.54545H39.7468L43.006 13H40.864L38.4957 5.70597H38.4219L36.049 13ZM35.9151 9.28374H40.9748V10.8441H35.9151V9.28374ZM44.144 13V3.54545H47.8741C48.5881 3.54545 49.1975 3.67318 49.7022 3.92862C50.21 4.18099 50.5963 4.53954 50.861 5.00426C51.1287 5.46591 51.2626 6.00911 51.2626 6.63388C51.2626 7.26172 51.1272 7.80185 50.8564 8.25426C50.5855 8.7036 50.1931 9.0483 49.6792 9.28835C49.1683 9.52841 48.5497 9.64844 47.8233 9.64844H45.3258V8.0419H47.5002C47.8818 8.0419 48.1988 7.98958 48.4512 7.88494C48.7035 7.7803 48.8913 7.62334 49.0144 7.41406C49.1406 7.20478 49.2037 6.94472 49.2037 6.63388C49.2037 6.31996 49.1406 6.05528 49.0144 5.83984C48.8913 5.62441 48.702 5.46129 48.4466 5.3505C48.1942 5.23662 47.8757 5.17969 47.4909 5.17969H46.1429V13H44.144ZM49.2498 8.69744L51.5996 13H49.3929L47.0939 8.69744H49.2498ZM56.0268 13H52.6752V3.54545H56.0545C57.0055 3.54545 57.8242 3.73473 58.5105 4.11328C59.1968 4.48875 59.7246 5.02888 60.0939 5.73366C60.4663 6.43845 60.6525 7.28172 60.6525 8.26349C60.6525 9.24834 60.4663 10.0947 60.0939 10.8026C59.7246 11.5104 59.1937 12.0536 58.5012 12.4322C57.8118 12.8107 56.987 13 56.0268 13ZM54.6742 11.2873H55.9437C56.5346 11.2873 57.0317 11.1826 57.4348 10.9734C57.8411 10.761 58.1458 10.4332 58.3489 9.99006C58.5551 9.5438 58.6582 8.96828 58.6582 8.26349C58.6582 7.56487 58.5551 6.99396 58.3489 6.55078C58.1458 6.1076 57.8426 5.78137 57.4395 5.57209C57.0363 5.36281 56.5392 5.25817 55.9483 5.25817H54.6742V11.2873Z" fill="black"/>
</svg>
