<svg width="64" height="16" viewBox="0 0 64 16" fill="none" xmlns="http://www.w3.org/2000/svg">
<path d="M0 3.5156V13.1969C0 13.7594 0.315625 14.2906 0.84375 14.4875C3.5625 15.5031 6.28125 14.8094 9 14.1156C11.4937 13.4812 13.9875 12.8437 16.4781 13.525C17.1969 13.7219 18 13.2281 18 12.4812V2.8031C18 2.2406 17.6844 1.70935 17.1562 1.51248C14.4375 0.496853 11.7188 1.1906 9 1.88435C6.50625 2.51873 4.0125 3.1531 1.52188 2.47185C0.8 2.27498 0 2.76873 0 3.5156ZM9 11C7.61875 11 6.5 9.65623 6.5 7.99998C6.5 6.34373 7.61875 4.99998 9 4.99998C10.3813 4.99998 11.5 6.34373 11.5 7.99998C11.5 9.65623 10.3813 11 9 11ZM2 11C3.10313 11 4 11.8969 4 13H2V11ZM4 4.49998C4 5.6031 3.10313 6.49998 2 6.49998V4.49998H4ZM16 9.49998V11.5H14C14 10.3969 14.8969 9.49998 16 9.49998ZM14 2.99998H16V4.99998C14.8969 4.99998 14 4.1031 14 2.99998Z" fill="black"/>
<path d="M35.1637 6.85547H33.1417C33.1048 6.59387 33.0294 6.36151 32.9155 6.15838C32.8016 5.95218 32.6554 5.77675 32.4769 5.6321C32.2984 5.48745 32.0922 5.37666 31.8583 5.29972C31.6275 5.22277 31.3767 5.1843 31.1058 5.1843C30.6165 5.1843 30.1902 5.30587 29.8271 5.54901C29.4639 5.78906 29.1823 6.13991 28.9822 6.60156C28.7822 7.06013 28.6822 7.61719 28.6822 8.27273C28.6822 8.94673 28.7822 9.51302 28.9822 9.97159C29.1854 10.4302 29.4685 10.7764 29.8317 11.0103C30.1948 11.2442 30.6149 11.3612 31.092 11.3612C31.3597 11.3612 31.6075 11.3258 31.8352 11.255C32.0661 11.1842 32.2707 11.0811 32.4492 10.9457C32.6277 10.8072 32.7755 10.6394 32.8924 10.4425C33.0124 10.2455 33.0955 10.0208 33.1417 9.76847L35.1637 9.7777C35.1114 10.2116 34.9806 10.6302 34.7713 11.0334C34.5651 11.4335 34.2866 11.792 33.9357 12.109C33.5879 12.4229 33.1725 12.6722 32.6893 12.8569C32.2092 13.0385 31.666 13.1293 31.0597 13.1293C30.2164 13.1293 29.4624 12.9384 28.7976 12.5568C28.1359 12.1752 27.6127 11.6228 27.228 10.8995C26.8464 10.1763 26.6555 9.30066 26.6555 8.27273C26.6555 7.24171 26.8494 6.36458 27.2372 5.64134C27.625 4.91809 28.1513 4.36719 28.8161 3.98864C29.4808 3.60701 30.2287 3.41619 31.0597 3.41619C31.6075 3.41619 32.1153 3.49313 32.5831 3.64702C33.054 3.8009 33.471 4.02557 33.8342 4.32102C34.1973 4.6134 34.4928 4.97195 34.7205 5.39666C34.9513 5.82138 35.0991 6.30765 35.1637 6.85547ZM38.049 13H35.907L39.1708 3.54545H41.7468L45.006 13H42.864L40.4957 5.70597H40.4219L38.049 13ZM37.9151 9.28374H42.9748V10.8441H37.9151V9.28374ZM51.0571 6.26456C51.0202 5.89216 50.8617 5.60286 50.5816 5.39666C50.3015 5.19046 49.9214 5.08736 49.4413 5.08736C49.1151 5.08736 48.8396 5.13352 48.615 5.22585C48.3903 5.3151 48.218 5.43975 48.0979 5.59979C47.981 5.75982 47.9225 5.94141 47.9225 6.14453C47.9163 6.3138 47.9517 6.46153 48.0287 6.58771C48.1087 6.7139 48.218 6.82315 48.3564 6.91548C48.4949 7.00473 48.655 7.08321 48.8366 7.15092C49.0181 7.21555 49.212 7.27095 49.4182 7.31712L50.2677 7.52024C50.6801 7.61257 51.0586 7.73568 51.4033 7.88956C51.748 8.04344 52.0465 8.23272 52.2989 8.45739C52.5513 8.68205 52.7467 8.94673 52.8852 9.25142C53.0268 9.55611 53.0991 9.90542 53.1022 10.2994C53.0991 10.878 52.9514 11.3796 52.659 11.8043C52.3697 12.226 51.9511 12.5537 51.4033 12.7876C50.8586 13.0185 50.2015 13.1339 49.4321 13.1339C48.6688 13.1339 48.0041 13.0169 47.4378 12.783C46.8746 12.5491 46.4345 12.2029 46.1175 11.7443C45.8035 11.2827 45.6389 10.7118 45.6235 10.0316H47.5578C47.5793 10.3486 47.6701 10.6133 47.8302 10.8256C47.9933 11.0349 48.2103 11.1934 48.4811 11.3011C48.755 11.4058 49.0643 11.4581 49.409 11.4581C49.7475 11.4581 50.0415 11.4089 50.2907 11.3104C50.5431 11.2119 50.7385 11.0749 50.877 10.8995C51.0155 10.7241 51.0848 10.5225 51.0848 10.2947C51.0848 10.0824 51.0217 9.90388 50.8955 9.75923C50.7724 9.61458 50.5908 9.49148 50.3508 9.38991C50.1138 9.28835 49.8229 9.19602 49.4782 9.11293L48.4488 8.8544C47.6517 8.66051 47.0223 8.35736 46.5606 7.94496C46.099 7.53255 45.8697 6.97704 45.8728 6.27841C45.8697 5.70597 46.022 5.20585 46.3298 4.77805C46.6407 4.35026 47.0669 4.01634 47.6086 3.77628C48.1502 3.53622 48.7658 3.41619 49.4552 3.41619C50.1569 3.41619 50.7693 3.53622 51.2925 3.77628C51.8188 4.01634 52.2281 4.35026 52.5205 4.77805C52.8129 5.20585 52.9637 5.70135 52.9729 6.26456H51.0571ZM54.4467 13V3.54545H56.4457V7.44638H60.5036V3.54545H62.4979V13H60.5036V9.09446H56.4457V13H54.4467Z" fill="black"/>
</svg>
