<svg width="20" height="20" viewBox="0 0 20 20" fill="none" xmlns="http://www.w3.org/2000/svg">
<path d="M3.33464 16.6663C2.8763 16.6663 2.48394 16.5031 2.15755 16.1768C1.83116 15.8504 1.66797 15.458 1.66797 14.9997V4.99967C1.66797 4.54134 1.83116 4.14898 2.15755 3.82259C2.48394 3.4962 2.8763 3.33301 3.33464 3.33301H16.668C17.1263 3.33301 17.5187 3.4962 17.8451 3.82259C18.1714 4.14898 18.3346 4.54134 18.3346 4.99967V14.9997C18.3346 15.458 18.1714 15.8504 17.8451 16.1768C17.5187 16.5031 17.1263 16.6663 16.668 16.6663H3.33464ZM16.668 6.66634L10.4388 10.5622C10.3694 10.6038 10.2964 10.6351 10.2201 10.6559C10.1437 10.6768 10.0707 10.6872 10.0013 10.6872C9.93186 10.6872 9.85894 10.6768 9.78255 10.6559C9.70616 10.6351 9.63325 10.6038 9.5638 10.5622L3.33464 6.66634V14.9997H16.668V6.66634ZM10.0013 9.16634L16.668 4.99967H3.33464L10.0013 9.16634ZM3.33464 6.87467V5.64551V5.66634V5.65592V6.87467Z" fill="black"/>
</svg>
