<svg width="24" height="24" viewBox="0 0 24 24" fill="none" xmlns="http://www.w3.org/2000/svg">
<path d="M11.6137 21C11.3767 21 11.1791 20.9202 11.0208 20.7605C10.8624 20.6007 10.7832 20.4028 10.7832 20.1667V16.0832C10.7832 15.8472 10.8634 15.6493 11.0238 15.4895C11.1841 15.3298 11.3827 15.25 11.6195 15.25C11.8565 15.25 12.0542 15.3298 12.2125 15.4895C12.3708 15.6493 12.45 15.8472 12.45 16.0832V17.3H20.1667C20.4028 17.3 20.6007 17.3802 20.7605 17.5405C20.9202 17.7007 21 17.8993 21 18.1363C21 18.3733 20.9202 18.5709 20.7605 18.7292C20.6007 18.8876 20.4028 18.9668 20.1667 18.9668H12.45V20.1667C12.45 20.4028 12.3698 20.6007 12.2095 20.7605C12.0493 20.9202 11.8507 21 11.6137 21ZM3.83325 18.9668C3.59725 18.9668 3.39933 18.8866 3.2395 18.7262C3.07983 18.5659 3 18.3673 3 18.1305C3 17.8935 3.07983 17.6958 3.2395 17.5375C3.39933 17.3792 3.59725 17.3 3.83325 17.3H8.28325C8.51942 17.3 8.71733 17.3802 8.877 17.5405C9.03683 17.7007 9.11675 17.8993 9.11675 18.1363C9.11675 18.3733 9.03683 18.5709 8.877 18.7292C8.71733 18.8876 8.51942 18.9668 8.28325 18.9668H3.83325ZM8.2805 14.8668C8.0435 14.8668 7.84583 14.7868 7.6875 14.627C7.52917 14.4673 7.45 14.2694 7.45 14.0332V12.8333H3.83325C3.59725 12.8333 3.39933 12.7532 3.2395 12.593C3.07983 12.4327 3 12.234 3 11.997C3 11.7602 3.07983 11.5626 3.2395 11.4043C3.39933 11.2459 3.59725 11.1667 3.83325 11.1667H7.45V9.93325C7.45 9.69725 7.53017 9.49933 7.6905 9.3395C7.85067 9.17983 8.04925 9.1 8.28625 9.1C8.52325 9.1 8.72092 9.17983 8.87925 9.3395C9.03758 9.49933 9.11675 9.69725 9.11675 9.93325V14.0332C9.11675 14.2694 9.03658 14.4673 8.87625 14.627C8.71592 14.7868 8.51733 14.8668 8.2805 14.8668ZM11.6168 12.8333C11.3806 12.8333 11.1827 12.7532 11.023 12.593C10.8632 12.4327 10.7832 12.234 10.7832 11.997C10.7832 11.7602 10.8632 11.5626 11.023 11.4043C11.1827 11.2459 11.3806 11.1667 11.6168 11.1667H20.1667C20.4028 11.1667 20.6007 11.2468 20.7605 11.407C20.9202 11.5673 21 11.766 21 12.003C21 12.2398 20.9202 12.4374 20.7605 12.5957C20.6007 12.7541 20.4028 12.8333 20.1667 12.8333H11.6168ZM15.7137 8.75C15.4767 8.75 15.2791 8.67017 15.1208 8.5105C14.9624 8.35067 14.8833 8.15275 14.8833 7.91675V3.83325C14.8833 3.59725 14.9634 3.39933 15.1238 3.2395C15.2841 3.07983 15.4827 3 15.7195 3C15.9565 3 16.1542 3.07983 16.3125 3.2395C16.4708 3.39933 16.55 3.59725 16.55 3.83325V5.03325H20.1667C20.4028 5.03325 20.6007 5.11342 20.7605 5.27375C20.9202 5.43408 21 5.63267 21 5.8695C21 6.1065 20.9202 6.30417 20.7605 6.4625C20.6007 6.62083 20.4028 6.7 20.1667 6.7H16.55V7.91675C16.55 8.15275 16.4698 8.35067 16.3095 8.5105C16.1493 8.67017 15.9508 8.75 15.7137 8.75ZM3.83325 6.7C3.59725 6.7 3.39933 6.61983 3.2395 6.4595C3.07983 6.29933 3 6.10075 3 5.86375C3 5.62675 3.07983 5.42908 3.2395 5.27075C3.39933 5.11242 3.59725 5.03325 3.83325 5.03325H12.3833C12.6194 5.03325 12.8173 5.11342 12.977 5.27375C13.1368 5.43408 13.2168 5.63267 13.2168 5.8695C13.2168 6.1065 13.1368 6.30417 12.977 6.4625C12.8173 6.62083 12.6194 6.7 12.3833 6.7H3.83325Z" fill="black"/>
</svg>
