<svg width="14" height="14" viewBox="0 0 14 14" fill="none" xmlns="http://www.w3.org/2000/svg">
<g clip-path="url(#clip0_367_1981)">
<path d="M11.3308 2.67258C10.7631 2.09923 10.0876 1.6437 9.34333 1.33217C8.59901 1.02064 7.80047 0.859243 6.99359 0.857257C6.18671 0.855271 5.38739 1.01273 4.64154 1.3206C3.8957 1.62846 3.21804 2.08066 2.64749 2.65121C2.07693 3.22176 1.62474 3.89943 1.31687 4.64527C1.00901 5.39111 0.851548 6.19043 0.853534 6.99731C0.85552 7.80419 1.01691 8.60273 1.32845 9.34705C1.63998 10.0914 2.0955 10.7668 2.66886 11.3345C3.2366 11.9079 3.91202 12.3634 4.65634 12.6749C5.40066 12.9865 6.1992 13.1479 7.00608 13.1499C7.81296 13.1518 8.61228 12.9944 9.35812 12.6865C10.104 12.3787 10.7816 11.9265 11.3522 11.3559C11.9227 10.7854 12.3749 10.1077 12.6828 9.36185C12.9907 8.61601 13.1481 7.81668 13.1461 7.0098C13.1441 6.20292 12.9828 5.40438 12.6712 4.66007C12.3597 3.91575 11.9042 3.24032 11.3308 2.67258ZM1.74983 7.00356C1.74963 6.53891 1.81124 6.0763 1.93304 5.62789C2.13374 6.05993 2.42523 6.43317 2.62347 6.87641C2.87968 7.44625 3.56765 7.28821 3.87144 7.7875C4.14105 8.23074 3.85312 8.79129 4.05491 9.25504C4.20148 9.59164 4.5471 9.6652 4.78554 9.91129C5.02917 10.1596 5.02398 10.4997 5.06116 10.8235C5.1031 11.2039 5.17116 11.5809 5.26487 11.952C5.26487 11.9547 5.26487 11.9577 5.26706 11.9604C3.22093 11.2418 1.74983 9.29141 1.74983 7.00356ZM6.99983 12.2536C6.70664 12.2535 6.41396 12.229 6.12483 12.1803C6.12784 12.1062 6.12921 12.037 6.13659 11.9889C6.20304 11.5541 6.42069 11.1289 6.71437 10.8035C7.00448 10.4825 7.40206 10.2654 7.64706 9.90118C7.88714 9.54571 7.95905 9.06719 7.86007 8.65184C7.71433 8.03825 6.88062 7.83344 6.43108 7.50067C6.17269 7.30926 5.94273 7.0134 5.60339 6.98934C5.44698 6.9784 5.31601 7.01203 5.16097 6.97211C5.01878 6.9352 4.90722 6.85864 4.75573 6.8786C4.47273 6.91578 4.29417 7.21821 3.99011 7.17719C3.70163 7.13864 3.40441 6.80094 3.33878 6.52614C3.25456 6.17285 3.53401 6.05828 3.83343 6.02684C3.95839 6.01371 4.09866 5.9995 4.2187 6.04543C4.37675 6.10395 4.4514 6.25871 4.59331 6.33692C4.85937 6.48293 4.91323 6.24969 4.87249 6.01344C4.81151 5.65961 4.74042 5.51551 5.05597 5.27188C5.27472 5.10399 5.46175 4.98258 5.42675 4.68098C5.40597 4.50379 5.3089 4.42368 5.39941 4.24731C5.46804 4.11305 5.65644 3.99192 5.77921 3.9118C6.09612 3.70508 7.13683 3.72039 6.71163 3.1418C6.58667 2.972 6.35616 2.66848 6.13741 2.62692C5.86398 2.57524 5.74257 2.88039 5.55198 3.01493C5.35511 3.1541 4.97175 3.31215 4.7746 3.09696C4.50937 2.80739 4.95042 2.7125 5.04804 2.51016C5.09315 2.41582 5.04804 2.28485 4.97202 2.16153C5.07064 2.11996 5.1709 2.08141 5.2728 2.04586C5.33667 2.09303 5.41242 2.12144 5.49155 2.12789C5.67448 2.13993 5.84702 2.04094 6.00671 2.16563C6.1839 2.30235 6.31159 2.47516 6.54675 2.51782C6.77425 2.5591 7.01515 2.42649 7.07148 2.19352C7.10565 2.05188 7.07148 1.90231 7.03866 1.75602C8.06132 1.7619 9.05971 2.06817 9.90976 2.63676C9.85507 2.61598 9.78972 2.61844 9.70905 2.6559C9.54308 2.73301 9.30792 2.92934 9.28851 3.12403C9.26636 3.34496 9.5923 3.37614 9.74706 3.37614C9.97948 3.37614 10.2149 3.27223 10.14 3.00371C10.1075 2.88723 10.0632 2.7661 9.99179 2.69282C10.1634 2.81185 10.3277 2.94095 10.484 3.07946C10.4815 3.08192 10.4791 3.0841 10.4766 3.08684C10.3191 3.2509 10.1362 3.38078 10.0284 3.58039C9.95241 3.72094 9.86683 3.78766 9.71288 3.82403C9.62812 3.84399 9.53132 3.85137 9.46023 3.90825C9.26226 4.0641 9.37491 4.43871 9.56249 4.5511C9.79956 4.69301 10.1512 4.62629 10.33 4.42367C10.4698 4.26508 10.5521 3.98973 10.8034 3.99C10.914 3.98977 11.0203 4.03309 11.0992 4.11059C11.2031 4.21832 11.1826 4.31895 11.2048 4.45348C11.2439 4.69246 11.4547 4.56285 11.5829 4.44227C11.6764 4.60863 11.7607 4.77997 11.8356 4.95551C11.6945 5.15867 11.5824 5.38016 11.243 5.14336C11.0399 5.00145 10.9149 4.79555 10.6598 4.73157C10.4369 4.67688 10.2086 4.73375 9.98851 4.77176C9.73831 4.81524 9.44163 4.83438 9.25187 5.02387C9.06839 5.20653 8.97132 5.45098 8.77608 5.63446C8.39847 5.98992 8.23905 6.37793 8.48351 6.88051C8.71866 7.36367 9.21058 7.6259 9.74132 7.59145C10.2628 7.55672 10.8044 7.2543 10.7894 8.012C10.7839 8.28024 10.84 8.4659 10.9223 8.715C10.9986 8.94469 10.9934 9.16727 11.0109 9.40434C11.0275 9.68195 11.0709 9.9573 11.1405 10.2266C10.6504 10.8576 10.0225 11.3683 9.3049 11.7196C8.58727 12.0709 7.79884 12.2535 6.99983 12.2536Z" fill="white"/>
</g>
<defs>
<clipPath id="clip0_367_1981">
<rect width="14" height="14" fill="white"/>
</clipPath>
</defs>
</svg>
