<svg width="20" height="20" viewBox="0 0 20 20" fill="none" xmlns="http://www.w3.org/2000/svg">
<path d="M9.99935 16.0623C11.6591 14.5137 12.89 13.1127 13.6921 11.8592C14.4941 10.6057 14.8952 9.49636 14.8952 8.53109C14.8952 7.03803 14.4225 5.81755 13.4771 4.86963C12.5315 3.92171 11.3718 3.44775 9.99789 3.44775C8.62386 3.44775 7.46463 3.92171 6.52018 4.86963C5.57574 5.81755 5.10352 7.03803 5.10352 8.53109C5.10352 9.49636 5.50456 10.6057 6.30664 11.8592C7.10872 13.1127 8.33963 14.5137 9.99935 16.0623ZM9.99935 17.5832C9.81185 17.5832 9.62713 17.5502 9.44518 17.4842C9.2631 17.4182 9.1006 17.3193 8.95768 17.1873C8.23546 16.5276 7.54796 15.8384 6.89518 15.1196C6.2424 14.4009 5.66775 13.6717 5.17122 12.9321C4.6747 12.1925 4.27886 11.4512 3.98372 10.7082C3.68859 9.96511 3.54102 9.23942 3.54102 8.53109C3.54102 6.50498 4.19206 4.89081 5.49414 3.68859C6.79622 2.48636 8.29796 1.88525 9.99935 1.88525C11.7007 1.88525 13.2025 2.48636 14.5046 3.68859C15.8066 4.89081 16.4577 6.50498 16.4577 8.53109C16.4577 9.23942 16.3101 9.96511 16.015 10.7082C15.7198 11.4512 15.324 12.1925 14.8275 12.9321C14.3309 13.6717 13.7563 14.4009 13.1035 15.1196C12.4507 15.8384 11.7632 16.5276 11.041 17.1873C10.8981 17.3193 10.7356 17.4182 10.5535 17.4842C10.3716 17.5502 10.1868 17.5832 9.99935 17.5832ZM9.99977 9.94775C10.4439 9.94775 10.824 9.78963 11.14 9.47338C11.4559 9.15713 11.6139 8.77692 11.6139 8.33275C11.6139 7.88859 11.4558 7.50852 11.1396 7.19255C10.8233 6.87657 10.4431 6.71859 9.99893 6.71859C9.55477 6.71859 9.1747 6.87671 8.85872 7.19296C8.54275 7.50921 8.38477 7.88942 8.38477 8.33359C8.38477 8.77775 8.54289 9.15782 8.85914 9.47379C9.17539 9.78977 9.5556 9.94775 9.99977 9.94775Z" fill="black"/>
</svg>