<svg width="42" height="42" viewBox="0 0 42 42" fill="none" xmlns="http://www.w3.org/2000/svg">
<path d="M17.5048 27.9532C17.9117 27.9532 18.2547 27.8126 18.5338 27.5314C18.8129 27.2503 18.9525 26.9068 18.9525 26.5011V15.4844C18.9525 15.0898 18.8115 14.7516 18.5294 14.4699C18.2474 14.1878 17.9028 14.0468 17.4956 14.0468C17.0887 14.0468 16.7465 14.1878 16.4688 14.4699C16.1911 14.7516 16.0523 15.0898 16.0523 15.4844V26.5011C16.0523 26.9068 16.1919 27.2503 16.471 27.5314C16.7501 27.8126 17.0947 27.9532 17.5048 27.9532ZM24.5171 27.9532C24.9239 27.9532 25.2669 27.8126 25.5461 27.5314C25.8252 27.2503 25.9647 26.9068 25.9647 26.5011V15.4844C25.9647 15.0898 25.8237 14.7516 25.5417 14.4699C25.2596 14.1878 24.9152 14.0468 24.5083 14.0468C24.1011 14.0468 23.7587 14.1878 23.4811 14.4699C23.2037 14.7516 23.065 15.0898 23.065 15.4844V26.5011C23.065 26.9068 23.2046 27.2503 23.4837 27.5314C23.7628 27.8126 24.1073 27.9532 24.5171 27.9532ZM21.0118 38.5013C18.5895 38.5013 16.3158 38.0411 14.1907 37.1206C12.0654 36.2004 10.2123 34.9484 8.63144 33.3646C7.05031 31.7806 5.79979 29.9273 4.87987 27.8049C3.95996 25.6821 3.5 23.4099 3.5 20.9882C3.5 18.5642 3.96025 16.2889 4.88075 14.1623C5.80096 12.0358 7.05265 10.1843 8.63581 8.60782C10.219 7.03137 12.0719 5.78464 14.1947 4.86764C16.3177 3.95035 18.5904 3.4917 21.0127 3.4917C23.437 3.4917 25.7127 3.95151 27.8399 4.87114C29.9673 5.79047 31.8189 7.03836 33.3948 8.61482C34.9707 10.191 36.2171 12.0423 37.1341 14.1689C38.0511 16.2954 38.5096 18.5693 38.5096 20.9904C38.5096 23.4136 38.0508 25.6877 37.1332 27.8128C36.2157 29.9378 34.9672 31.7888 33.3878 33.3655C31.8087 34.9423 29.9564 36.1923 27.8307 37.1158C25.705 38.0395 23.4321 38.5013 21.0118 38.5013ZM21.0149 35.3329C24.9882 35.3329 28.3682 33.9367 31.1548 31.1443C33.9411 28.3516 35.3342 24.9657 35.3342 20.9864C35.3342 17.0131 33.9431 13.6331 31.1609 10.8465C28.379 8.06022 24.9916 6.66707 20.9987 6.66707C17.0326 6.66707 13.6528 8.05818 10.8592 10.8404C8.06531 13.6223 6.66837 17.0097 6.66837 21.0026C6.66837 24.9687 8.06458 28.3486 10.857 31.1421C13.6497 33.936 17.0357 35.3329 21.0149 35.3329Z" fill="white"/>
</svg>