<svg width="58" height="20" viewBox="0 0 58 20" fill="none" xmlns="http://www.w3.org/2000/svg">
<g clip-path="url(#clip0_338_4521)">
<path d="M3.66908 0.5H51.6808C52.2307 0.5 52.7106 0.721986 52.9806 1.16596L57.7698 9.00611C58.1397 9.62162 58.0697 10.3683 57.5498 10.9838L50.801 18.824C50.431 19.2477 49.9511 19.5 49.4112 19.5H1.52945C0.579616 19.5 -0.100267 18.7533 0.009714 17.8149L1.78941 2.18508C1.89939 1.2265 2.71925 0.5 3.65909 0.5" fill="#0CBBBC"/>
<path d="M32.3137 13.9402L33.0536 7.97688C33.5535 7.63382 34.1234 7.36138 34.6033 7.36138C35.2332 7.36138 35.5432 7.83562 35.4432 8.65293L34.7933 13.9503H37.0729L37.7828 8.1686L37.8028 8.00716C38.3027 7.66409 38.8826 7.37147 39.3725 7.37147C40.0024 7.37147 40.3123 7.84571 40.2124 8.66302L39.5625 13.9604H41.8421L42.552 8.17869C42.7419 6.56425 41.9221 5.58549 40.4523 5.58549C39.4325 5.58549 38.3527 6.17072 37.6328 6.70551C37.3229 5.9891 36.653 5.58549 35.6931 5.58549C34.7333 5.58549 33.8235 6.05973 33.0936 6.54406L33.1936 5.80747H31.0639L30.0441 13.9503H32.3237L32.3137 13.9402ZM45.7714 9.11709C46.0014 8.03743 46.7712 7.41183 47.7211 7.41183C48.6709 7.41183 49.1908 7.94661 49.1908 8.81438C49.1908 8.91528 49.1908 9.02627 49.1808 9.12718H45.7714V9.11709ZM43.3818 10.2068C43.3518 12.2451 44.8216 14.132 47.821 14.132C48.8909 14.132 49.7907 13.9201 50.6006 13.4155L50.7605 11.4984C50.1007 11.902 49.1008 12.1845 48.231 12.1845C47.0812 12.1845 46.0513 11.68 45.7614 10.5095H51.3404C51.4204 10.2976 51.4904 9.79314 51.4904 9.3088C51.4904 7.15957 50.3106 5.59558 47.891 5.59558C45.4715 5.59558 43.4218 7.04858 43.3918 10.2169M15.6766 11.5589C15.6766 10.6811 16.6964 10.3481 17.7462 10.3481H18.816L18.6561 11.6699C18.2062 12.0332 17.3963 12.4065 16.7164 12.4065C16.1065 12.4065 15.6866 12.0634 15.6866 11.5589M13.397 11.7406C13.377 13.0624 14.4468 14.132 16.0765 14.132C17.2263 14.132 18.0662 13.6375 18.5461 13.1027L18.4461 13.9302H20.6457L21.1756 9.5207C21.4356 7.3412 20.7257 5.56531 17.9462 5.56531C16.8164 5.56531 15.4466 5.82766 14.7068 6.31199L14.4768 8.13833C15.0767 7.81544 16.2365 7.41183 17.2963 7.41183C18.5761 7.41183 19.026 8.05761 18.976 8.73366H17.6163C15.6466 8.73366 13.407 9.50052 13.387 11.7305M7.08807 11.9525L7.58798 7.94661C8.0779 7.55309 8.6178 7.39165 9.10772 7.41183C10.0776 7.42192 10.6075 8.20896 10.6075 9.42989C10.6075 11.0141 9.7876 12.3662 8.39784 12.3662C7.95792 12.3662 7.458 12.2249 7.08807 11.9625M4.26855 16.6243H6.52817L6.8981 13.5467C7.25804 13.8192 7.91793 14.132 8.75778 14.132C11.3773 14.132 12.9671 11.8011 12.9671 9.25835C12.9671 7.08894 11.9472 5.5754 10.0476 5.5754C9.14771 5.5754 8.31786 5.86802 7.68797 6.39271L7.76795 5.78729H5.57833L4.26855 16.6142V16.6243ZM28.0145 5.79738L25.5649 11.4278L24.2851 5.79738H21.7655L24.0052 13.9604L22.6954 16.6343H25.1749L30.454 5.80747H28.0045L28.0145 5.79738Z" fill="white"/>
</g>
<defs>
<clipPath id="clip0_338_4521">
<rect width="58" height="19" fill="white" transform="translate(0 0.5)"/>
</clipPath>
</defs>
</svg>
