<svg width="24" height="24" viewBox="0 0 24 24" fill="none" xmlns="http://www.w3.org/2000/svg">
<path d="M11.9996 13.325L7.13706 18.1875C6.95373 18.3708 6.73289 18.4604 6.47456 18.4562C6.21623 18.4521 5.99539 18.3583 5.81206 18.175C5.63706 17.9917 5.55164 17.7729 5.55581 17.5187C5.55998 17.2646 5.64956 17.05 5.82456 16.875L10.6746 12L5.82456 7.125C5.64956 6.95 5.56206 6.73542 5.56206 6.48125C5.56206 6.22708 5.64956 6.00833 5.82456 5.825C5.99956 5.64167 6.21623 5.54792 6.47456 5.54375C6.73289 5.53958 6.95373 5.62917 7.13706 5.8125L11.9996 10.675L16.8621 5.8125C17.0454 5.62917 17.2662 5.53958 17.5246 5.54375C17.7829 5.54792 18.0037 5.64167 18.1871 5.825C18.3621 6.00833 18.4475 6.22708 18.4433 6.48125C18.4391 6.73542 18.3496 6.95 18.1746 7.125L13.3246 12L18.1746 16.875C18.3496 17.05 18.4371 17.2646 18.4371 17.5187C18.4371 17.7729 18.3496 17.9917 18.1746 18.175C17.9996 18.3583 17.7829 18.4521 17.5246 18.4562C17.2662 18.4604 17.0454 18.3708 16.8621 18.1875L11.9996 13.325Z" fill="black"/>
</svg>
