<svg width="24" height="24" viewBox="0 0 24 24" fill="none" xmlns="http://www.w3.org/2000/svg">
<path d="M12 20.0875C11.775 20.0875 11.5521 20.0479 11.3313 19.9688C11.1104 19.8896 10.9125 19.7667 10.7375 19.6L9.1625 18.1625C7.3625 16.5208 5.76042 14.9125 4.35625 13.3375C2.95208 11.7625 2.25 10.0417 2.25 8.175C2.25 6.65817 2.75867 5.3915 3.776 4.375C4.79333 3.35833 6.06092 2.85 7.57875 2.85C8.43458 2.85 9.24792 3.03542 10.0188 3.40625C10.7896 3.77708 11.45 4.3 12 4.975C12.5667 4.3 13.231 3.77708 13.993 3.40625C14.755 3.03542 15.5657 2.85 16.425 2.85C17.9418 2.85 19.2085 3.35833 20.225 4.375C21.2417 5.3915 21.75 6.65817 21.75 8.175C21.75 10.0417 21.05 11.7646 19.65 13.3437C18.25 14.9229 16.6458 16.5292 14.8375 18.1625L13.2625 19.6C13.0875 19.7667 12.8896 19.8896 12.6687 19.9688C12.4479 20.0479 12.225 20.0875 12 20.0875ZM11.107 6.8975C10.6773 6.2075 10.1729 5.67292 9.59375 5.29375C9.01458 4.91458 8.33958 4.725 7.56875 4.725C6.58492 4.725 5.765 5.05208 5.109 5.70625C4.453 6.36042 4.125 7.182 4.125 8.171C4.125 9.02833 4.42917 9.93917 5.0375 10.9035C5.64583 11.8678 6.37083 12.8042 7.2125 13.7125C8.05417 14.6208 8.92083 15.4688 9.8125 16.2562C10.7042 17.0437 11.4333 17.6917 12 18.2C12.5667 17.6917 13.2958 17.0437 14.1875 16.2562C15.0792 15.4688 15.9458 14.6208 16.7875 13.7125C17.6292 12.8042 18.3542 11.8678 18.9625 10.9035C19.5708 9.93917 19.875 9.02833 19.875 8.171C19.875 7.182 19.547 6.36042 18.891 5.70625C18.235 5.05208 17.4151 4.725 16.4313 4.725C15.6604 4.725 14.9833 4.91458 14.4 5.29375C13.8167 5.67292 13.3102 6.2075 12.8805 6.8975C12.7768 7.06583 12.6467 7.18958 12.49 7.26875C12.3332 7.34792 12.1686 7.3875 11.9963 7.3875C11.8238 7.3875 11.6583 7.34792 11.5 7.26875C11.3417 7.18958 11.2107 7.06583 11.107 6.8975Z" fill="#BDBDBD"/>
</svg>
