<svg width="20" height="20" viewBox="0 0 20 20" fill="none" xmlns="http://www.w3.org/2000/svg">
<path d="M9.27083 10.7187H5.10417C4.89764 10.7187 4.72444 10.6487 4.58458 10.5085C4.44486 10.3684 4.375 10.1948 4.375 9.9877C4.375 9.78062 4.44486 9.60763 4.58458 9.46875C4.72444 9.32986 4.89764 9.26041 5.10417 9.26041H9.27083V5.09374C9.27083 4.88708 9.3409 4.71388 9.48104 4.57416C9.62118 4.43444 9.79479 4.36458 10.0019 4.36458C10.209 4.36458 10.3819 4.43444 10.5208 4.57416C10.6597 4.71388 10.7292 4.88708 10.7292 5.09374V9.26041H14.8958C15.1025 9.26041 15.2757 9.33048 15.4154 9.47062C15.5551 9.61076 15.625 9.78437 15.625 9.99145C15.625 10.1985 15.5551 10.3715 15.4154 10.5104C15.2757 10.6493 15.1025 10.7187 14.8958 10.7187H10.7292V14.8854C10.7292 15.0919 10.6591 15.2651 10.519 15.405C10.3788 15.5447 10.2052 15.6146 9.99813 15.6146C9.79104 15.6146 9.61806 15.5447 9.47917 15.405C9.34028 15.2651 9.27083 15.0919 9.27083 14.8854V10.7187Z" fill="black"/>
</svg>
