<svg width="24" height="24" viewBox="0 0 24 24" fill="none" xmlns="http://www.w3.org/2000/svg">
<path d="M5.65 17.45C6.63333 16.7445 7.64442 16.1987 8.68325 15.8125C9.72225 15.4263 10.8278 15.2332 12 15.2332C13.1722 15.2332 14.2805 15.4263 15.325 15.8125C16.3695 16.1987 17.3834 16.7445 18.3668 17.45C19.0501 16.6222 19.5487 15.7582 19.8625 14.8582C20.1763 13.9582 20.3333 13.0055 20.3333 12C20.3333 9.65 19.5319 7.67358 17.9292 6.07075C16.3264 4.46808 14.35 3.66675 12 3.66675C9.65 3.66675 7.67358 4.46808 6.07075 6.07075C4.46808 7.67358 3.66675 9.65 3.66675 12C3.66675 13.0055 3.82642 13.9582 4.14575 14.8582C4.46525 15.7582 4.96667 16.6222 5.65 17.45ZM11.997 12.8333C11.0268 12.8333 10.2098 12.5003 9.54575 11.8345C8.88192 11.1685 8.55 10.3504 8.55 9.38025C8.55 8.41008 8.883 7.59308 9.549 6.92925C10.2148 6.26525 11.0328 5.93325 12.003 5.93325C12.9732 5.93325 13.7902 6.26625 14.4542 6.93225C15.1181 7.59825 15.45 8.41633 15.45 9.3865C15.45 10.3567 15.117 11.1737 14.451 11.8375C13.7852 12.5013 12.9672 12.8333 11.997 12.8333ZM12.0078 22C10.6304 22 9.33342 21.7375 8.11675 21.2125C6.90008 20.6875 5.83892 19.9722 4.93325 19.0667C4.02775 18.1611 3.3125 17.1012 2.7875 15.8872C2.2625 14.6733 2 13.376 2 11.9955C2 10.6152 2.2625 9.31942 2.7875 8.10825C3.3125 6.89725 4.02775 5.83892 4.93325 4.93325C5.83892 4.02775 6.89875 3.3125 8.11275 2.7875C9.32675 2.2625 10.624 2 12.0045 2C13.3848 2 14.6806 2.2625 15.8917 2.7875C17.1027 3.3125 18.1611 4.02775 19.0667 4.93325C19.9722 5.83892 20.6875 6.89742 21.2125 8.10875C21.7375 9.32025 22 10.6147 22 11.9923C22 13.3696 21.7375 14.6666 21.2125 15.8832C20.6875 17.0999 19.9722 18.1611 19.0667 19.0667C18.1611 19.9722 17.1026 20.6875 15.8913 21.2125C14.6798 21.7375 13.3853 22 12.0078 22ZM12 20.3333C12.9055 20.3333 13.7805 20.2013 14.625 19.9375C15.4695 19.6737 16.2834 19.2389 17.0667 18.6333C16.2834 18.0723 15.4668 17.6431 14.6167 17.3457C13.7667 17.0486 12.8945 16.9 12 16.9C11.1055 16.9 10.2332 17.0486 9.38325 17.3457C8.53325 17.6431 7.71658 18.0723 6.93325 18.6333C7.71658 19.2389 8.5305 19.6737 9.375 19.9375C10.2195 20.2013 11.0945 20.3333 12 20.3333ZM12 11.1667C12.5222 11.1667 12.9499 11.0001 13.2833 10.6667C13.6166 10.3334 13.7833 9.90558 13.7833 9.38325C13.7833 8.86108 13.6166 8.43333 13.2833 8.1C12.9499 7.76667 12.5222 7.6 12 7.6C11.4778 7.6 11.0501 7.76667 10.7168 8.1C10.3834 8.43333 10.2168 8.86108 10.2168 9.38325C10.2168 9.90558 10.3834 10.3334 10.7168 10.6667C11.0501 11.0001 11.4778 11.1667 12 11.1667Z" fill="black"/>
</svg>
