<svg width="24" height="24" viewBox="0 0 24 24" fill="none" xmlns="http://www.w3.org/2000/svg">
<path d="M12.0004 20.4C11.8116 20.4 11.6194 20.3665 11.4239 20.2996C11.2284 20.2328 11.0565 20.1258 10.9082 19.9788L9.51231 18.7159C7.62431 17.0005 5.96703 15.3441 4.54047 13.7467C3.11375 12.1494 2.40039 10.451 2.40039 8.65175C2.40039 7.21271 2.89103 6.01098 3.87231 5.04658C4.85375 4.08218 6.06975 3.59998 7.52031 3.59998C8.34703 3.59998 9.15239 3.78749 9.93639 4.16252C10.7204 4.5377 11.4084 5.12133 12.0004 5.91341C12.6457 5.12133 13.3443 4.5377 14.0963 4.16252C14.8483 3.78749 15.643 3.59998 16.4805 3.59998C17.931 3.59998 19.147 4.08218 20.1285 5.04658C21.1098 6.01098 21.6004 7.21271 21.6004 8.65175C21.6004 10.451 20.8884 12.1507 19.4644 13.7507C18.0404 15.3508 16.379 17.0085 14.4803 18.7239L13.0883 19.9828C12.9418 20.1284 12.7718 20.2343 12.5783 20.3006C12.385 20.3668 12.1924 20.4 12.0004 20.4ZM11.2804 7.58167C10.8377 6.85239 10.2937 6.26876 9.64839 5.83078C9.00311 5.39281 8.29375 5.17382 7.52031 5.17382C6.49631 5.17382 5.65367 5.50163 4.99239 6.15726C4.33111 6.81305 4.00047 7.64683 4.00047 8.6586C4.00047 9.53534 4.30647 10.4611 4.91847 11.4359C5.53047 12.4105 6.26247 13.356 7.11447 14.2724C7.96647 15.1889 8.84711 16.0432 9.75639 16.8354C10.6657 17.6275 11.4137 18.2885 12.0004 18.8183C12.5871 18.299 13.3351 17.6406 14.2444 16.8432C15.1537 16.0458 16.0337 15.1855 16.8844 14.2623C17.7351 13.339 18.4671 12.3898 19.0804 11.4147C19.6937 10.4395 20.0003 9.51858 20.0003 8.65175C20.0003 7.64455 19.667 6.81305 19.0005 6.15726C18.3338 5.50163 17.4938 5.17382 16.4805 5.17382C15.6965 5.17382 14.9845 5.39021 14.3445 5.82299C13.7045 6.25578 13.1525 6.84201 12.6885 7.58167C12.5978 7.71796 12.4938 7.81758 12.3765 7.88053C12.259 7.94348 12.1283 7.97496 11.9843 7.97496C11.8403 7.97496 11.707 7.94348 11.5845 7.88053C11.4618 7.81758 11.3604 7.71796 11.2804 7.58167Z" fill="black"/>
</svg>
