<svg width="24" height="24" viewBox="0 0 24 24" fill="none" xmlns="http://www.w3.org/2000/svg">
<path d="M12 20.845C11.7667 20.845 11.5292 20.8033 11.2875 20.72C11.0458 20.6367 10.8333 20.5033 10.65 20.32L8.925 18.745C7.15833 17.1283 5.5625 15.5242 4.1375 13.9325C2.7125 12.3408 2 10.5867 2 8.67C2 7.10333 2.525 5.795 3.575 4.745C4.625 3.695 5.93333 3.17 7.5 3.17C8.38333 3.17 9.21667 3.3575 10 3.7325C10.7833 4.1075 11.45 4.62 12 5.27C12.55 4.62 13.2167 4.1075 14 3.7325C14.7833 3.3575 15.6167 3.17 16.5 3.17C18.0667 3.17 19.375 3.695 20.425 4.745C21.475 5.795 22 7.10333 22 8.67C22 10.5867 21.2917 12.345 19.875 13.945C18.4583 15.545 16.85 17.1533 15.05 18.77L13.35 20.32C13.1667 20.5033 12.9542 20.6367 12.7125 20.72C12.4708 20.8033 12.2333 20.845 12 20.845ZM11.05 7.27C10.5667 6.58667 10.05 6.06583 9.5 5.7075C8.95 5.34916 8.28333 5.17 7.5 5.17C6.5 5.17 5.66667 5.50333 5 6.17C4.33333 6.83667 4 7.67 4 8.67C4 9.53667 4.30833 10.4575 4.925 11.4325C5.54167 12.4075 6.27917 13.3533 7.1375 14.27C7.99583 15.1867 8.87917 16.045 9.7875 16.845C10.6958 17.645 11.4333 18.3033 12 18.82C12.5667 18.3033 13.3042 17.645 14.2125 16.845C15.1208 16.045 16.0042 15.1867 16.8625 14.27C17.7208 13.3533 18.4583 12.4075 19.075 11.4325C19.6917 10.4575 20 9.53667 20 8.67C20 7.67 19.6667 6.83667 19 6.17C18.3333 5.50333 17.5 5.17 16.5 5.17C15.7167 5.17 15.05 5.34916 14.5 5.7075C13.95 6.06583 13.4333 6.58667 12.95 7.27C12.8333 7.43667 12.6917 7.56167 12.525 7.645C12.3583 7.72833 12.1833 7.77 12 7.77C11.8167 7.77 11.6417 7.72833 11.475 7.645C11.3083 7.56167 11.1667 7.43667 11.05 7.27Z" fill="black"/>
</svg>
