<svg width="24" height="24" viewBox="0 0 24 24" fill="none" xmlns="http://www.w3.org/2000/svg">
<path d="M9.71094 16.21C7.89427 16.21 6.35677 15.5808 5.09844 14.3225C3.8401 13.0642 3.21094 11.5267 3.21094 9.71001C3.21094 7.89334 3.8401 6.35584 5.09844 5.09751C6.35677 3.83917 7.89427 3.21001 9.71094 3.21001C11.5276 3.21001 13.0651 3.83917 14.3234 5.09751C15.5818 6.35584 16.2109 7.89334 16.2109 9.71001C16.2109 10.4433 16.0943 11.135 15.8609 11.785C15.6276 12.435 15.3109 13.01 14.9109 13.51L20.5109 19.11C20.6943 19.2933 20.7859 19.5267 20.7859 19.81C20.7859 20.0933 20.6943 20.3267 20.5109 20.51C20.3276 20.6933 20.0943 20.785 19.8109 20.785C19.5276 20.785 19.2943 20.6933 19.1109 20.51L13.5109 14.91C13.0109 15.31 12.4359 15.6267 11.7859 15.86C11.1359 16.0933 10.4443 16.21 9.71094 16.21ZM9.71094 14.21C10.9609 14.21 12.0234 13.7725 12.8984 12.8975C13.7734 12.0225 14.2109 10.96 14.2109 9.71001C14.2109 8.46001 13.7734 7.39751 12.8984 6.52251C12.0234 5.64751 10.9609 5.21001 9.71094 5.21001C8.46094 5.21001 7.39844 5.64751 6.52344 6.52251C5.64844 7.39751 5.21094 8.46001 5.21094 9.71001C5.21094 10.96 5.64844 12.0225 6.52344 12.8975C7.39844 13.7725 8.46094 14.21 9.71094 14.21Z" fill="black"/>
</svg>