<svg width="42" height="42" viewBox="0 0 42 42" fill="none" xmlns="http://www.w3.org/2000/svg">
<path d="M18.5938 24.1938L14.8505 20.4505C14.5314 20.1314 14.1458 19.9719 13.6937 19.9719C13.2417 19.9719 12.8552 20.1323 12.5344 20.4531C12.2135 20.774 12.0531 21.1604 12.0531 21.6125C12.0531 22.0646 12.2109 22.4484 12.5265 22.764L17.4344 27.6719C17.7645 28.0073 18.1497 28.175 18.5898 28.175C19.0299 28.175 19.4177 28.0073 19.7531 27.6719L29.4656 17.9594C29.7865 17.6385 29.9469 17.2521 29.9469 16.8C29.9469 16.3479 29.7865 15.9615 29.4656 15.6406C29.1448 15.3198 28.7583 15.1594 28.3062 15.1594C27.8542 15.1594 27.4696 15.3179 27.1526 15.6349L18.5938 24.1938ZM21 38.0625C18.6401 38.0625 16.4224 37.6139 14.3469 36.7167C12.2717 35.8193 10.4665 34.6016 8.93112 33.0636C7.39579 31.5254 6.17969 29.7195 5.28281 27.6461C4.38594 25.5729 3.9375 23.3575 3.9375 21C3.9375 18.6401 4.38608 16.4224 5.28325 14.3469C6.18071 12.2717 7.39842 10.4665 8.93637 8.93113C10.4746 7.39579 12.2805 6.17969 14.3539 5.28281C16.4271 4.38594 18.6425 3.9375 21 3.9375C23.3599 3.9375 25.5776 4.38608 27.6531 5.28325C29.7283 6.18071 31.5335 7.39842 33.0689 8.93638C34.6042 10.4746 35.8203 12.2805 36.7172 14.3539C37.6141 16.4271 38.0625 18.6425 38.0625 21C38.0625 23.3599 37.6139 25.5776 36.7167 27.6531C35.8193 29.7283 34.6016 31.5335 33.0636 33.0689C31.5254 34.6042 29.7195 35.8203 27.6461 36.7172C25.5729 37.6141 23.3575 38.0625 21 38.0625ZM21 34.7812C24.8354 34.7812 28.0911 33.4432 30.7672 30.7672C33.4432 28.0911 34.7812 24.8354 34.7812 21C34.7812 17.1646 33.4432 13.9089 30.7672 11.2328C28.0911 8.55677 24.8354 7.21875 21 7.21875C17.1646 7.21875 13.9089 8.55677 11.2328 11.2328C8.55677 13.9089 7.21875 17.1646 7.21875 21C7.21875 24.8354 8.55677 28.0911 11.2328 30.7672C13.9089 33.4432 17.1646 34.7812 21 34.7812Z" fill="#28CD41"/>
</svg>
