<svg width="20" height="20" viewBox="0 0 20 20" fill="none" xmlns="http://www.w3.org/2000/svg">
<path d="M8.10352 12.0208L14.3118 5.8125C14.5202 5.60417 14.7632 5.5 15.041 5.5C15.3188 5.5 15.5618 5.60271 15.7702 5.80812C15.9785 6.01354 16.0827 6.25368 16.0827 6.52854C16.0827 6.8034 15.9812 7.04229 15.7783 7.24521L8.83268 14.1875C8.6281 14.3958 8.38949 14.5 8.11685 14.5C7.84407 14.5 7.60352 14.3958 7.39518 14.1875L4.29102 11.0833C4.08268 10.8788 3.97852 10.6401 3.97852 10.3673C3.97852 10.0947 4.08122 9.85417 4.28664 9.64583C4.49206 9.4375 4.73282 9.33333 5.00893 9.33333C5.2849 9.33333 5.52477 9.4375 5.72852 9.64583L8.10352 12.0208Z" fill="#0B99FF"/>
</svg>
