<svg width="20" height="20" viewBox="0 0 20 20" fill="none" xmlns="http://www.w3.org/2000/svg">
<path d="M15 5.41667L14.3 14.4983C14.1942 15.5592 14.1417 16.0892 13.9 16.49C13.688 16.8428 13.3763 17.125 13.0042 17.3008C12.5817 17.5 12.05 17.5 10.9833 17.5H9.01667C7.95083 17.5 7.41833 17.5 6.99583 17.3C6.62337 17.1243 6.31134 16.8421 6.09917 16.4892C5.85917 16.0892 5.80583 15.5592 5.69917 14.4983L5 5.41667M11.25 12.9167V8.75M8.75 12.9167V8.75M3.75 5.41667H7.59583M7.59583 5.41667L7.9175 3.19C8.01083 2.785 8.3475 2.5 8.73417 2.5H11.2658C11.6525 2.5 11.9883 2.785 12.0825 3.19L12.4042 5.41667M7.59583 5.41667H12.4042M12.4042 5.41667H16.25" stroke="#999999" stroke-width="1.5" stroke-linecap="round" stroke-linejoin="round"/>
</svg>
