<svg width="20" height="20" viewBox="0 0 20 20" fill="none" xmlns="http://www.w3.org/2000/svg">
<path d="M4.26042 18.8231C4.04514 18.8231 3.86111 18.7467 3.70833 18.5939C3.55556 18.4411 3.47917 18.2571 3.47917 18.0418C3.47917 17.8266 3.55556 17.6425 3.70833 17.4897C3.86111 17.337 4.04514 17.2606 4.26042 17.2606H15.7396C15.9549 17.2606 16.1389 17.337 16.2917 17.4897C16.4444 17.6425 16.5208 17.8266 16.5208 18.0418C16.5208 18.2571 16.4444 18.4411 16.2917 18.5939C16.1389 18.7467 15.9549 18.8231 15.7396 18.8231H4.26042ZM4.26042 2.73975C4.04514 2.73975 3.86111 2.66336 3.70833 2.51058C3.55556 2.3578 3.47917 2.17377 3.47917 1.9585C3.47917 1.74322 3.55556 1.55919 3.70833 1.40641C3.86111 1.25363 4.04514 1.17725 4.26042 1.17725H15.7396C15.9549 1.17725 16.1389 1.25363 16.2917 1.40641C16.4444 1.55919 16.5208 1.74322 16.5208 1.9585C16.5208 2.17377 16.4444 2.3578 16.2917 2.51058C16.1389 2.66336 15.9549 2.73975 15.7396 2.73975H4.26042ZM9.98958 11.1043C10.6667 11.1043 11.2422 10.8673 11.7163 10.3933C12.1901 9.9194 12.4271 9.34391 12.4271 8.66683C12.4271 7.98975 12.1901 7.41419 11.7163 6.94016C11.2422 6.46627 10.6667 6.22933 9.98958 6.22933C9.3125 6.22933 8.73701 6.46627 8.26313 6.94016C7.7891 7.41419 7.55208 7.98975 7.55208 8.66683C7.55208 9.34391 7.7891 9.9194 8.26313 10.3933C8.73701 10.8673 9.3125 11.1043 9.98958 11.1043ZM3.4375 16.4793C3.00778 16.4793 2.63993 16.3263 2.33396 16.0204C2.02799 15.7144 1.875 15.3466 1.875 14.9168V5.09391C1.875 4.66141 2.02799 4.29113 2.33396 3.98308C2.63993 3.67502 3.00778 3.521 3.4375 3.521H16.5521C16.9846 3.521 17.3549 3.67502 17.6629 3.98308C17.971 4.29113 18.125 4.66141 18.125 5.09391V14.9168C18.125 15.3466 17.971 15.7144 17.6629 16.0204C17.3549 16.3263 16.9846 16.4793 16.5521 16.4793H3.4375ZM4.97917 14.9168C5.59722 14.1738 6.33257 13.5922 7.18521 13.172C8.03785 12.7519 8.97708 12.5418 10.0029 12.5418C11.0288 12.5418 11.9688 12.7519 12.8229 13.172C13.6771 13.5922 14.4097 14.1738 15.0208 14.9168H16.5625V5.0835H3.4375V14.9168H4.97917ZM7.29167 14.9168H12.7188C12.3208 14.646 11.8919 14.4429 11.4321 14.3075C10.9724 14.172 10.4955 14.1043 10.0015 14.1043C9.50743 14.1043 9.03139 14.172 8.57333 14.3075C8.11542 14.4429 7.68819 14.646 7.29167 14.9168ZM9.98958 9.54183C9.74653 9.54183 9.53993 9.45676 9.36979 9.28662C9.19965 9.11648 9.11458 8.90989 9.11458 8.66683C9.11458 8.42377 9.19965 8.21718 9.36979 8.04704C9.53993 7.8769 9.74653 7.79183 9.98958 7.79183C10.2326 7.79183 10.4392 7.8769 10.6094 8.04704C10.7795 8.21718 10.8646 8.42377 10.8646 8.66683C10.8646 8.90989 10.7795 9.11648 10.6094 9.28662C10.4392 9.45676 10.2326 9.54183 9.98958 9.54183Z" fill="black"/>
</svg>