<svg width="20" height="20" viewBox="0 0 20 20" fill="none" xmlns="http://www.w3.org/2000/svg">
<path d="M10.7917 9.6875V6.67708C10.7917 6.46181 10.7153 6.27778 10.5625 6.125C10.4097 5.97222 10.2257 5.89583 10.0104 5.89583C9.79514 5.89583 9.61111 5.97222 9.45833 6.125C9.30556 6.27778 9.22917 6.46181 9.22917 6.67708V9.98958C9.22917 10.0911 9.24826 10.1894 9.28646 10.2846C9.32465 10.3799 9.38194 10.4656 9.45833 10.5417L12.1796 13.2821C12.3307 13.4343 12.5139 13.5104 12.7292 13.5104C12.9444 13.5104 13.1285 13.434 13.2812 13.2812C13.434 13.1285 13.5104 12.9444 13.5104 12.7292C13.5104 12.5139 13.4343 12.3301 13.2821 12.1779L10.7917 9.6875ZM10 18.125C8.87625 18.125 7.82021 17.9114 6.83187 17.4842C5.84368 17.0568 4.98403 16.4769 4.25292 15.7446C3.52181 15.0121 2.94271 14.1522 2.51562 13.1648C2.08854 12.1776 1.875 11.1226 1.875 10C1.875 8.87625 2.08861 7.82021 2.51583 6.83187C2.94319 5.84368 3.52306 4.98403 4.25542 4.25292C4.98792 3.52181 5.84785 2.94271 6.83521 2.51562C7.82243 2.08854 8.87736 1.875 10 1.875C11.1238 1.875 12.1798 2.08861 13.1681 2.51583C14.1563 2.94319 15.016 3.52306 15.7471 4.25542C16.4782 4.98792 17.0573 5.84785 17.4844 6.83521C17.9115 7.82243 18.125 8.87736 18.125 10C18.125 11.1238 17.9114 12.1798 17.4842 13.1681C17.0568 14.1563 16.4769 15.016 15.7446 15.7471C15.0121 16.4782 14.1522 17.0573 13.1648 17.4844C12.1776 17.9115 11.1226 18.125 10 18.125ZM10 16.5625C11.8125 16.5625 13.3594 15.9219 14.6406 14.6406C15.9219 13.3594 16.5625 11.8125 16.5625 10C16.5625 8.1875 15.9219 6.64062 14.6406 5.35938C13.3594 4.07812 11.8125 3.4375 10 3.4375C8.1875 3.4375 6.64062 4.07812 5.35938 5.35938C4.07812 6.64062 3.4375 8.1875 3.4375 10C3.4375 11.8125 4.07812 13.3594 5.35938 14.6406C6.64062 15.9219 8.1875 16.5625 10 16.5625Z" fill="black"/>
</svg>